<?xml version="1.0" encoding="UTF-8" standalone="no"?>
<!DOCTYPE svg PUBLIC "-//W3C//DTD SVG 1.1//EN"
"http://www.w3.org/Graphics/SVG/1.1/DTD/svg11.dtd">
<svg version="1.1" xmlns="http://www.w3.org/2000/svg" xmlns:xlink="http://www.w3.org/1999/xlink">
<defs>
<style type="text/css"><![CDATA[
.g5_1{
fill: none;
stroke: #FFFFFF;
stroke-width: 2;
stroke-linecap: butt;
stroke-linejoin: miter;
}
.g3_1{
fill: #FFFFFF;
}
.g2_1{
fill: none;
stroke: #231F20;
stroke-width: 1;
stroke-linecap: butt;
stroke-linejoin: miter;
}
.g4_1{
fill: none;
stroke: #231F20;
stroke-width: 2;
stroke-linecap: butt;
stroke-linejoin: miter;
}
.g1_1{
fill: none;
stroke: #231F20;
stroke-width: 2;
stroke-linecap: butt;
stroke-linejoin: miter;
stroke-miterlimit: 1000;
}
.g6_1{
fill: none;
stroke: #000000;
stroke-width: 1;
stroke-linecap: butt;
stroke-linejoin: miter;
}
]]></style>
</defs>
<path d="M45.7,45.1c1.1,-1.1,2.5,-1.7,4.1,-1.7l108.5,0c1.6,0,3,0.6,4.1,1.7c1.1,1.1,1.7,2.4,1.7,4l0,133.7c0,1.5,-0.6,2.9,-1.7,4c-1.1,1.1,-2.5,1.7,-4.1,1.7l-108.5,0c-1.6,0,-3,-0.6,-4.1,-1.7c-1.1,-1.1,-1.7,-2.5,-1.7,-4L44,49.1c0,-1.6,0.6,-2.9,1.7,-4Z" class="g1_1" />
<path d="M43.5,81.5l120,0" class="g2_1" />
<path d="M46,45l114,0l0,32L46,77L46,45Z" class="g3_1" />
<image x="46" y="45" width="115" height="33" xlink:href="img/1.png" />
<path d="M42,132l121,0" class="g4_1" />
<path d="M45.1,194.5c1.1,-1.1,2.4,-1.7,4,-1.7l776.9,0c1.6,0,2.9,0.6,4,1.7c1.2,1.1,1.7,2.5,1.7,4l0,62.4c0,1.6,-0.5,3,-1.7,4.1c-1.1,1.1,-2.4,1.7,-4,1.7l-776.9,0c-1.6,0,-2.9,-0.6,-4,-1.7c-1.1,-1.1,-1.7,-2.5,-1.7,-4.1l0,-62.4c0,-1.5,0.6,-2.9,1.7,-4Z" class="g1_1" />
<path d="M45.9,961c1.2,-1.1,2.5,-1.7,4.1,-1.7l776,0c1.6,0,2.9,0.6,4,1.7c1.2,1.1,1.7,2.5,1.7,4.1l0,133.6c0,1.6,-0.5,2.9,-1.7,4.1c-1.1,1.1,-2.4,1.6,-4,1.6l-776,0c-1.6,0,-2.9,-0.5,-4.1,-1.6c-1.1,-1.2,-1.6,-2.5,-1.6,-4.1l0,-133.6c0,-1.6,0.5,-3,1.6,-4.1ZM45.1,720.7c1.2,-1.1,2.5,-1.7,4.1,-1.7L826,719c1.6,0,2.9,0.6,4,1.7c1.2,1.1,1.7,2.5,1.7,4l0,156.2c0,1.6,-0.5,2.9,-1.7,4.1c-1.1,1.1,-2.4,1.6,-4,1.6l-776.8,0c-1.6,0,-2.9,-0.5,-4.1,-1.6c-1.1,-1.2,-1.6,-2.5,-1.6,-4.1l0,-156.2c0,-1.5,0.5,-2.9,1.6,-4Z" class="g1_1" />
<path d="M42,552l789,0M42,576l789,0M42,598l787,0M43,619l789,0M42,642l789,0M43,667l788,0M667,690l164,0" class="g4_1" />
<path d="M46.3,894.2c1.1,-1.1,2.5,-1.6,4,-1.6l775.7,0c1.6,0,2.9,0.5,4,1.6c1.2,1.2,1.7,2.5,1.7,4.1l0,49.8c0,1.5,-0.5,2.9,-1.7,4c-1.1,1.1,-2.4,1.7,-4,1.7l-775.7,0c-1.5,0,-2.9,-0.6,-4,-1.7c-1.1,-1.1,-1.7,-2.5,-1.7,-4l0,-49.8c0,-1.6,0.6,-2.9,1.7,-4.1Z" class="g1_1" />
<path d="M171.6,45.1c1.1,-1.1,2.5,-1.7,4,-1.7l141.1,0c1.6,0,2.9,0.6,4,1.7c1.1,1.1,1.7,2.4,1.7,4l0,133.7c0,1.5,-0.6,2.9,-1.7,4c-1.1,1.1,-2.4,1.7,-4,1.7l-141.1,0c-1.5,0,-2.9,-0.6,-4,-1.7c-1.1,-1.1,-1.7,-2.5,-1.7,-4l0,-133.7c0,-1.6,0.6,-2.9,1.7,-4ZM46.3,273.8c1.1,-1.1,2.5,-1.6,4,-1.6l776.9,0c1.6,0,2.9,0.5,4.1,1.6c1.1,1.2,1.6,2.5,1.6,4.1l0,236.2c0,1.6,-0.5,3,-1.6,4.1c-1.2,1.1,-2.5,1.7,-4.1,1.7l-776.9,0c-1.5,0,-2.9,-0.6,-4,-1.7c-1.1,-1.1,-1.7,-2.5,-1.7,-4.1l0,-236.2c0,-1.6,0.6,-2.9,1.7,-4.1Z" class="g1_1" />
<path d="M93,82l0,50" class="g4_1" />
<path d="M329.6,45.1c1.1,-1.1,2.4,-1.7,4,-1.7l491.2,0c1.6,0,2.9,0.6,4,1.7c1.1,1.1,1.7,2.4,1.7,4l0,133.7c0,1.5,-0.6,2.9,-1.7,4c-1.1,1.1,-2.4,1.7,-4,1.7l-491.2,0c-1.6,0,-2.9,-0.6,-4,-1.7c-1.2,-1.1,-1.7,-2.5,-1.7,-4l0,-133.7c0,-1.6,0.5,-2.9,1.7,-4Z" class="g1_1" />
<path d="M327,152l503,0M327,116l504,0M327,88l503,0" class="g4_1" />
<path d="M474,64l250,0M43,300l789,0" class="g4_1" />
<path d="M106,321l125,0m64,2l526,0" class="g4_1" />
<path d="M372,347l260,0m73,0l116,0" class="g4_1" />
<path d="M312,369l509,0M58,391l512,0m75,0l176,0" class="g4_1" />
<path d="M149,416l278,0" class="g4_1" />
<path d="M206,430l100,0l0,17l-100,0l0,-17Z" class="g1_1" />
<path d="M238,429l0,18m33,-18l0,16" class="g4_1" />
<path d="M206,454l100,0l0,17l-100,0l0,-17Z" class="g1_1" />
<path d="M238,453l0,18m33,-18l0,16" class="g4_1" />
<path d="M542,429l100,0l0,17l-100,0l0,-17Z" class="g1_1" />
<path d="M574,429l0,18m33,-18l0,16" class="g4_1" />
<path d="M544,454l100,0l0,17l-100,0l0,-17Z" class="g1_1" />
<path d="M576,453l0,18m33,-18l0,16" class="g4_1" />
<path d="M660,473l172,0l0,42l-172,0l0,-42Z" class="g1_1" />
<path d="M696,473l0,41M660,493l172,0" class="g4_1" />
<path d="M45.1,527.5c1.1,-1.2,2.4,-1.7,4,-1.7l776.9,0c1.6,0,2.9,0.5,4,1.7c1.2,1.1,1.7,2.4,1.7,4l0,177.7c0,1.5,-0.5,2.9,-1.7,4c-1.1,1.1,-2.4,1.7,-4,1.7l-776.9,0c-1.6,0,-2.9,-0.6,-4,-1.7c-1.1,-1.1,-1.7,-2.5,-1.7,-4l0,-177.7c0,-1.6,0.6,-2.9,1.7,-4Z" class="g1_1" />
<path d="M157,552l0,114M308,552l0,114M699,552l0,158" class="g4_1" />
<path d="M667,711l164,0M667,689l0,22" class="g4_1" />
<path d="M220,707l440,0M445,891l0,62m0,-39l386,0" class="g4_1" />
<path d="M332,489l320,0M319,508l333,0" class="g4_1" />
<path d="M868,0l27,0" class="g5_1" />
<path d="M868.5,0.5l27,0" class="g6_1" />
<path d="M868,1208l27,0" class="g5_1" />
<path d="M868.5,1208.5l27,0" class="g6_1" />
<path d="M868,1222l27,0" class="g5_1" />
<path d="M868.5,1222.5l27,0" class="g6_1" />
<path d="M854,1222l0,27" class="g5_1" />
<path d="M854.5,1222.5l0,27" class="g6_1" />
<path d="M868,1222l0,27" class="g5_1" />
<path d="M868.5,1222.5l0,27" class="g6_1" />
<path d="M0,1222l0,27" class="g5_1" />
<path d="M0.5,1222.5l0,27" class="g6_1" />
</svg>