<?xml version="1.0" encoding="UTF-8" standalone="no"?>
<!-- Created with Inkscape (http://www.inkscape.org/) -->

<svg
   xmlns:dc="http://purl.org/dc/elements/1.1/"
   xmlns:cc="http://creativecommons.org/ns#"
   xmlns:rdf="http://www.w3.org/1999/02/22-rdf-syntax-ns#"
   xmlns:svg="http://www.w3.org/2000/svg"
   xmlns="http://www.w3.org/2000/svg"
   xmlns:sodipodi="http://sodipodi.sourceforge.net/DTD/sodipodi-0.dtd"
   xmlns:inkscape="http://www.inkscape.org/namespaces/inkscape"
   width="64"
   height="64"
   id="svg4700"
   version="1.1"
   inkscape:version="0.48.4 r9939"
   viewBox="0 0 64 64"
   sodipodi:docname="delete.svg"
   inkscape:export-filename="/home/federico/Dropbox/contratos_online/src/static/images/delete.png"
   inkscape:export-xdpi="90"
   inkscape:export-ydpi="90">
  <defs
     id="defs4702" />
  <sodipodi:namedview
     id="base"
     pagecolor="#ffffff"
     bordercolor="#666666"
     borderopacity="1.0"
     inkscape:pageopacity="0.0"
     inkscape:pageshadow="2"
     inkscape:zoom="3.8890873"
     inkscape:cx="21.943296"
     inkscape:cy="9.3818313"
     inkscape:current-layer="g5302"
     showgrid="true"
     inkscape:document-units="px"
     inkscape:grid-bbox="true"
     showguides="false"
     inkscape:window-width="956"
     inkscape:window-height="1041"
     inkscape:window-x="960"
     inkscape:window-y="18"
     inkscape:window-maximized="0" />
  <metadata
     id="metadata4705">
    <rdf:RDF>
      <cc:Work
         rdf:about="">
        <dc:format>image/svg+xml</dc:format>
        <dc:type
           rdf:resource="http://purl.org/dc/dcmitype/StillImage" />
        <dc:title />
      </cc:Work>
    </rdf:RDF>
  </metadata>
  <g
     id="layer1"
     inkscape:label="Layer 1"
     inkscape:groupmode="layer">
    <g
       id="g5302"
       transform="matrix(0.06427588,0,0,0.06427424,-0.13793811,-0.13792502)">
      <path
         id="path5304"
         d="m 576.65909,538.89685 379.77458,-355.273 c 24.11111,-22.55555 24.11111,-56.43492 0,-78.99047 -24.11111,-22.555556 -60.32698,-22.555556 -84.43809,0 L 492.221,459.99844 112.44642,104.72544 c -24.111107,-22.555553 -60.228565,-22.555553 -84.438088,0 -24.1111094,22.55556 -24.1111094,56.43492 0,78.99047 L 404.83053,538.89685 28.106745,894.16985 c -24.1111097,22.55555 -24.1111097,56.43491 0,78.99047 C 37.160713,984.48413 55.268648,990.1 70.32579,990.1 c 15.057142,0 30.11428,-5.61587 42.21905,-16.93968 l 379.67616,-355.273 379.77458,355.273 c 12.10476,11.32381 27.16191,16.93968 42.21905,16.93968 15.05714,0 30.11428,-5.61587 42.21904,-16.93968 24.11111,-22.55556 24.11111,-56.43492 0,-78.99047 l -379.77458,-355.273 z"
         inkscape:connector-curvature="0" />
    </g>
  </g>
</svg>
