<?xml version="1.0" encoding="UTF-8" standalone="no"?>
<!-- Created with Inkscape (http://www.inkscape.org/) -->

<svg
   xmlns:dc="http://purl.org/dc/elements/1.1/"
   xmlns:cc="http://creativecommons.org/ns#"
   xmlns:rdf="http://www.w3.org/1999/02/22-rdf-syntax-ns#"
   xmlns:svg="http://www.w3.org/2000/svg"
   xmlns="http://www.w3.org/2000/svg"
   xmlns:sodipodi="http://sodipodi.sourceforge.net/DTD/sodipodi-0.dtd"
   xmlns:inkscape="http://www.inkscape.org/namespaces/inkscape"
   id="svg3422"
   version="1.1"
   inkscape:version="0.91 r13725"
   width="823"
   height="122"
   viewBox="0 0 823 122"
   sodipodi:docname="docs_online_black.svg">
  <metadata
     id="metadata3428">
    <rdf:RDF>
      <cc:Work
         rdf:about="">
        <dc:format>image/svg+xml</dc:format>
        <dc:type
           rdf:resource="http://purl.org/dc/dcmitype/StillImage" />
        <dc:title></dc:title>
      </cc:Work>
    </rdf:RDF>
  </metadata>
  <defs
     id="defs3426" />
  <sodipodi:namedview
     pagecolor="#ffffff"
     bordercolor="#666666"
     borderopacity="1"
     objecttolerance="10"
     gridtolerance="10"
     guidetolerance="10"
     inkscape:pageopacity="0"
     inkscape:pageshadow="2"
     inkscape:window-width="1920"
     inkscape:window-height="1029"
     id="namedview3424"
     showgrid="false"
     inkscape:zoom="0.87181045"
     inkscape:cx="563.83588"
     inkscape:cy="39.498854"
     inkscape:window-x="0"
     inkscape:window-y="0"
     inkscape:window-maximized="1"
     inkscape:current-layer="svg3422" />
  <path
     style="fill:#8b8989;fill-opacity:1"
     d="m 131.86473,120.98978 c -6.95596,-2.37455 -11.38002,-5.28244 -16.71657,-10.98764 -5.54441,-5.92743 -8.27746,-11.10383 -10.22579,-19.367702 -5.25234,-22.277818 3.98062,-44.345911 22.16168,-52.969571 25.55863,-12.123 54.78532,0.8063 61.45873,27.18809 l 1.64421,6.5 1.14759,-4.5 c 3.77315,-14.79553 10.56897,-23.75297 22.60187,-29.79111 10.09722,-5.06681 26.04146,-5.38543 36.22365,-0.72387 7.96169,3.64499 11.45685,6.57242 16.03827,13.43314 l 3.98525,5.96797 1.7699,-4.63441 c 0.97345,-2.54893 3.51012,-6.52234 5.63707,-8.8298 9.34107,-10.13387 27.88414,-12.28742 43.32126,-5.03125 4.37591,2.05688 16.48497,11.6008 17.29242,13.62926 0.35582,0.89387 -18.18949,16.98007 -19.57582,16.98007 -0.54113,0 -2.65441,-1.849086 -4.69618,-4.10908 -2.04177,-2.259993 -4.90663,-4.732221 -6.36636,-5.493839 -3.05765,-1.595333 -7.97223,-1.797613 -10.15406,-0.417932 -2.49299,1.576442 0.61201,3.711526 11.03078,7.585057 5.16118,1.918841 11.26821,4.59305 13.57119,5.942685 8.69797,5.09735 13.6433,13.917541 13.58382,24.227297 -0.0704,12.209665 -7.67953,22.256185 -19.51959,25.772305 -7.28797,2.16429 -21.04919,1.94212 -28.00838,-0.45219 -6.10178,-2.09932 -14.81749,-7.46646 -18.51336,-11.40052 l -2.29633,-2.44434 -4.05149,4.39535 c -2.28358,2.4774 -6.93213,5.81348 -10.65303,7.64528 -6.38241,3.14204 -7.01721,3.24993 -19.12258,3.24993 -11.98304,0 -12.80032,-0.1347 -19.02103,-3.1349 -10.99375,-5.30221 -18.3612,-14.21091 -22.21352,-26.860557 l -2.13039,-6.995454 -1.30257,5.735355 c -0.71641,3.154445 -2.17475,7.427396 -3.24074,9.495456 -4.82899,9.36834 -15.70507,18.26661 -25.52182,20.8807 -7.14417,1.90241 -21.89072,1.64887 -28.13808,-0.48378 z M 152.8508,97.314905 c 6.14282,-2.914962 9.56105,-9.93775 9.56105,-19.64329 0,-13.510639 -8.76332,-22.57511 -19.12713,-19.784427 -4.34963,1.171235 -9.15134,6.249467 -10.88973,11.516869 -1.98886,6.026301 -0.81103,17.599481 2.26405,22.246246 4.33514,6.550827 11.57405,8.804907 18.19176,5.664602 z m 154.97926,0.931065 c 4.14483,-1.590523 -0.0752,-5.688129 -9.41821,-9.144976 -9.93684,-3.676562 -16.549,-7.239185 -20.45742,-11.022438 -3.87165,-3.747654 -7.47982,-10.217229 -7.52062,-13.484716 -0.0183,-1.465807 -1.6863,-0.92391 -10.00379,3.25 -5.49001,2.755014 -10.18243,5.009117 -10.4276,5.009117 -0.24517,0 -2.09061,-2.707717 -4.10099,-6.017148 -3.93781,-6.482344 -7.47478,-8.985022 -12.68992,-8.979114 -9.91077,0.01123 -17.17111,12.401402 -14.77148,25.20833 1.70409,9.094739 7.78993,14.787932 15.80782,14.787932 5.88405,0 10.03928,-2.841472 14.20388,-9.713025 1.76233,-2.907836 3.48682,-5.275695 3.83218,-5.261909 0.34537,0.01379 5.35294,2.666074 11.12794,5.893972 l 10.5,5.868905 4.18856,-4.041881 4.18856,-4.04188 4.99474,4.490704 c 2.74711,2.469887 6.48726,5.226199 8.31144,6.125139 3.36141,1.656468 9.34655,2.181358 12.23491,1.072988 z m 106.58179,22.68248 c -18.09873,-5.7326 -31.25529,-19.78882 -36.64133,-39.146891 -1.34676,-4.840443 -1.76258,-9.763721 -1.68314,-19.928602 0.0907,-11.61143 0.46741,-14.61915 2.69258,-21.5 5.88818,-18.20792 18.53393,-30.829439 36.1746,-36.1052695 7.33362,-2.19328 23.60505,-2.44662 31.45729,-0.48977 18.22965,4.5429805 32.67961,18.9743495 38.64475,38.5950395 2.59184,8.52513 2.59242,32.471607 9.9e-4,41 -5.73101,18.860793 -19.42045,32.576123 -37.79965,37.871123 -7.71955,2.22399 -25.39348,2.06492 -32.84609,-0.29563 z m 25.28531,-24.65704 c 9.72771,-3.314563 16.95301,-13.915657 18.6397,-27.3485 1.69005,-13.459611 -1.28938,-25.039983 -8.49412,-33.014773 -6.91912,-7.65863 -15.52019,-10.33397 -24.67089,-7.67379 -13.77929,4.00575 -21.60464,18.35704 -20.5821,37.746529 0.74341,14.096479 6.87838,24.539102 17.3221,29.484772 5.8389,2.765042 11.30797,3.012812 17.78531,0.805762 z m 330.16032,25.10281 C 755.5851,116.86476 744.9984,105.6933 741.5106,91.461569 c -1.54033,-6.28516 -1.53987,-19.934934 8.7e-4,-26.217224 2.89863,-11.819018 11.32961,-23.092088 20.77628,-27.779998 7.55388,-3.74861 13.3888,-4.90173 22.36039,-4.41893 10.89001,0.58604 18.83598,4.076 25.62565,11.25508 8.5084,8.99638 12.09602,19.132687 12.12328,34.252556 l 0.0148,8.200096 -5.71637,0.299904 -5.71637,0.299904 6.71637,4.367458 c 3.694,2.402102 6.71637,5.023389 6.71637,5.825082 0,0.801693 -2.26104,4.461343 -5.02454,8.132543 -5.68285,7.54948 -13.60927,13.39476 -21.23444,15.65919 -6.20764,1.84347 -22.51044,1.86478 -28.29539,0.037 z m 21.89719,-23.89114 c 1.80321,-0.753433 4.96759,-3.340933 7.03194,-5.75 l 3.75337,-4.380123 -8.56407,-0.288933 c -4.71023,-0.158913 -12.3961,-0.158913 -17.07971,0 l -8.51565,0.288933 2.46298,3.61944 c 4.51824,6.639699 13.73462,9.509223 20.91114,6.510683 z M 790.8491,61.550039 c -0.75787,-1.974977 -5.9106,-4.697082 -8.8912,-4.697082 -3.02107,0 -7.57829,2.128995 -9.49133,4.434063 -1.16493,1.403654 -0.25384,1.565937 8.79145,1.565937 7.88059,0 9.98154,-0.285407 9.59108,-1.302918 z m -789.4372532,0.68572 0,-58.6172015 26.2500002,0.51519 c 22.397918,0.43958 27.402619,0.82283 34.10452,2.61167 18.695344,4.9900705 31.110491,16.5692095 37.222613,34.7161495 2.24797,6.67424 2.67562,9.74224 2.77271,19.89139 0.0679,7.093331 -0.43708,14.24889 -1.2349,17.5 -3.812287,15.534983 -13.828916,28.298423 -27.494205,35.033793 -11.937213,5.88363 -19.351328,6.96621 -47.708706,6.96621 l -23.9120322,0 0,-58.617201 z M 43.221944,94.837573 c 11.42312,-1.203312 17.909215,-3.871572 23.10001,-9.50292 4.975062,-5.397305 7.089893,-12.252472 7.089893,-22.981696 0,-11.67747 -2.109476,-17.94682 -7.941751,-23.60285 -6.347005,-6.1552 -11.870961,-8.00395 -25.808249,-8.63746 l -11.25,-0.51136 0,33.125835 0,33.125835 2.75,-0.01733 c 1.5125,-0.0095 6.939544,-0.458656 12.060097,-0.998055 z m 451.189906,-16.984616 0,-43 13,0 c 10.88889,0 13,0.24359 13,1.5 0,1.84503 -0.53363,1.88765 6.25968,-0.5 6.97524,-2.4516 17.26515,-2.61993 24.80882,-0.40584 4.14088,1.21537 6.64188,2.83532 10.52532,6.81751 8.46827,8.68362 8.72598,9.99972 9.17126,46.83833 l 0.38377,31.750003 -13.5181,0 -13.51811,0 -0.30632,-28.896778 c -0.28376,-26.768814 -0.4466,-29.051657 -2.21131,-31 -4.29456,-4.741459 -13.89647,-1.372045 -18.31333,6.426346 -2.16276,3.818555 -2.24941,4.917149 -2.26523,28.720429 l -0.0164,24.750003 -13.5,0 -13.5,0 0,-43.000003 z m 87,-17 0,-59.9999995 13.5,0 13.5,0 0,59.9999995 0,60.000003 -13.5,0 -13.5,0 0,-60.000003 z m 40,17.5 0,-42.5 13,0 13,0 0,42.5 0,42.500003 -13,0 -13,0 0,-42.500003 z m 37,-0.5 0,-43 13.5,0 c 11.64912,0 13.5,0.21708 13.5,1.58333 0,0.87928 0.55583,1.35049 1.25,1.05969 15.44038,-6.46831 33.74291,-3.75761 41.59167,6.15994 6.53473,8.25716 6.57253,8.49913 6.9439,44.44704 l 0.33832,32.750003 -13.56194,0 -13.56195,0 0,-28.065744 c 0,-32.723256 -0.26691,-33.883989 -7.79966,-33.918946 -4.87037,-0.0226 -8.80128,2.447605 -11.66145,7.328114 -2.53647,4.328157 -2.53889,4.356279 -2.53889,29.494431 l 0,25.162145 -14,0 -14,0 0,-43.000003 z m -38,-58 0,-13.9999995 14,0 14,0 0,13.9999995 0,14 -14,0 -14,0 0,-14 z"
     id="path3448"
     inkscape:connector-curvature="0" />
  <flowRoot
     xml:space="preserve"
     id="flowRoot3436"
     style="fill:black;stroke:none;stroke-opacity:1;stroke-width:1px;stroke-linejoin:miter;stroke-linecap:butt;fill-opacity:1;font-family:sans-serif;font-style:normal;font-weight:normal;font-size:40px;line-height:125%;letter-spacing:0px;word-spacing:0px"><flowRegion
       id="flowRegion3438"><rect
         id="rect3440"
         width="24.087805"
         height="130.76237"
         x="-68.822296"
         y="208.02788" /></flowRegion><flowPara
       id="flowPara3442"></flowPara></flowRoot></svg>
