<?xml version="1.0" encoding="UTF-8" standalone="no"?>
<!-- Created with Inkscape (http://www.inkscape.org/) -->

<svg
   xmlns:dc="http://purl.org/dc/elements/1.1/"
   xmlns:cc="http://creativecommons.org/ns#"
   xmlns:rdf="http://www.w3.org/1999/02/22-rdf-syntax-ns#"
   xmlns:svg="http://www.w3.org/2000/svg"
   xmlns="http://www.w3.org/2000/svg"
   xmlns:sodipodi="http://sodipodi.sourceforge.net/DTD/sodipodi-0.dtd"
   xmlns:inkscape="http://www.inkscape.org/namespaces/inkscape"
   width="64px"
   height="64px"
   id="svg3929"
   version="1.1"
   inkscape:version="0.48.4 r9939"
   sodipodi:docname="New document 13">
  <defs
     id="defs3931" />
  <sodipodi:namedview
     id="base"
     pagecolor="#ffffff"
     bordercolor="#666666"
     borderopacity="1.0"
     inkscape:pageopacity="0.0"
     inkscape:pageshadow="2"
     inkscape:zoom="3.8890873"
     inkscape:cx="83.01363"
     inkscape:cy="20.425869"
     inkscape:current-layer="layer1"
     showgrid="true"
     inkscape:document-units="px"
     inkscape:grid-bbox="true"
     inkscape:window-width="1916"
     inkscape:window-height="1041"
     inkscape:window-x="0"
     inkscape:window-y="18"
     inkscape:window-maximized="0" />
  <metadata
     id="metadata3934">
    <rdf:RDF>
      <cc:Work
         rdf:about="">
        <dc:format>image/svg+xml</dc:format>
        <dc:type
           rdf:resource="http://purl.org/dc/dcmitype/StillImage" />
        <dc:title></dc:title>
      </cc:Work>
    </rdf:RDF>
  </metadata>
  <g
     id="layer1"
     inkscape:label="Layer 1"
     inkscape:groupmode="layer">
    <path
       inkscape:connector-curvature="0"
       d="m 36.739672,17.375001 c 0,0 -11.296252,-0.18008 -19.404418,5.163671 -8.1081641,5.34961 -10.11047,16.711329 -10.11047,16.711329 0,0 7.276657,-8.499219 14.451296,-11.248829 7.847071,-3.008985 15.063592,-1.251171 15.063592,-1.251171 v 9.375 L 55.183477,23.625 36.739672,8.0000001 v 9.3750009 z"
       id="path4039" />
    <path
       inkscape:connector-curvature="0"
       d="m 40.936407,37.998828 c -7.84707,3.008984 -16.492603,1.251173 -16.492603,1.251173 V 29.875 L 6,42.375 24.443804,58 v -9.375 c 0,0 12.929299,0.180078 21.037464,-5.163672 C 53.589433,38.11172 56,26.750001 56,26.750001 c 0,0 -7.888953,8.499218 -15.063593,11.248827 z"
       id="path4041" />
  </g>
</svg>
